HIERARCHY
ROOT joint_Root
{
	OFFSET 0.0 0.0 0.0
	CHANNELS 6 Xposition Yposition Zposition Zrotation Xrotation Yrotation 
	JOINT Hips
	{
		OFFSET -0.726466 93.3139 -2.00062
		CHANNELS 6 Xposition Yposition Zposition Zrotation Xrotation Yrotation 
		JOINT Spine
		{
			OFFSET 15.7357 0.0 0.0
			CHANNELS 6 Xposition Yposition Zposition Zrotation Xrotation Yrotation 
			JOINT Chest
			{
				OFFSET 8.98455 -0.406207 0.0
				CHANNELS 6 Xposition Yposition Zposition Zrotation Xrotation Yrotation 
				JOINT Neck
				{
					OFFSET 16.3773 0.0 0.0
					CHANNELS 6 Xposition Yposition Zposition Zrotation Xrotation Yrotation 
					JOINT Head
					{
						OFFSET 6.45672 0.0 0.0
						CHANNELS 6 Xposition Yposition Zposition Zrotation Xrotation Yrotation 
						End Site
						{
							OFFSET 0.0 0.0 0.0
						}
					}
				}
				JOINT Shoulder_L
				{
					OFFSET 12.9942 -0.242716 4.98039
					CHANNELS 6 Xposition Yposition Zposition Zrotation Xrotation Yrotation 
					JOINT UpperArm_L
					{
						OFFSET 5.34809 0.0 0.0
						CHANNELS 6 Xposition Yposition Zposition Zrotation Xrotation Yrotation 
						JOINT LowerArm_L
						{
							OFFSET 24.3286 1.87007e-05 0.0
							CHANNELS 6 Xposition Yposition Zposition Zrotation Xrotation Yrotation 
							JOINT Hand_L
							{
								OFFSET 22.2916 0.0 0.0
								CHANNELS 6 Xposition Yposition Zposition Zrotation Xrotation Yrotation 
								End Site
								{
									OFFSET 0.0 0.0 0.0
								}
							}
						}
					}
				}
				JOINT Shoulder_R
				{
					OFFSET 12.9945 -0.242716 -4.98039
					CHANNELS 6 Xposition Yposition Zposition Zrotation Xrotation Yrotation 
					JOINT UpperArm_R
					{
						OFFSET -5.34813 0.0 0.0
						CHANNELS 6 Xposition Yposition Zposition Zrotation Xrotation Yrotation 
						JOINT LowerArm_R
						{
							OFFSET -24.3289 0.000322201 0.0
							CHANNELS 6 Xposition Yposition Zposition Zrotation Xrotation Yrotation 
							JOINT Hand_R
							{
								OFFSET -22.2915 -0.000108084 0.0
								CHANNELS 6 Xposition Yposition Zposition Zrotation Xrotation Yrotation 
								End Site
								{
									OFFSET 0.0 0.0 0.0
								}
							}
						}
					}
				}
			}
		}
		JOINT UpperLeg_L
		{
			OFFSET -2.19248 -6.46944 0.0
			CHANNELS 6 Xposition Yposition Zposition Zrotation Xrotation Yrotation 
			JOINT LowerLeg_L
			{
				OFFSET 39.0811 0.0 -1.23785e-05
				CHANNELS 6 Xposition Yposition Zposition Zrotation Xrotation Yrotation 
				JOINT Foot_L
				{
					OFFSET 40.9854 0.0 -1.26872e-05
					CHANNELS 6 Xposition Yposition Zposition Zrotation Xrotation Yrotation 
					JOINT Toes_L
					{
						OFFSET 11.7543 0.0 0.0
						CHANNELS 6 Xposition Yposition Zposition Zrotation Xrotation Yrotation 
						End Site
						{
							OFFSET 0.0 0.0 0.0
						}
					}
				}
			}
		}
		JOINT UpperLeg_R
		{
			OFFSET -2.19251 6.46944 0.0
			CHANNELS 6 Xposition Yposition Zposition Zrotation Xrotation Yrotation 
			JOINT LowerLeg_R
			{
				OFFSET -39.0811 -0.00228153 -0.0401928
				CHANNELS 6 Xposition Yposition Zposition Zrotation Xrotation Yrotation 
				JOINT Foot_R
				{
					OFFSET -40.9854 0.0 0.0
					CHANNELS 6 Xposition Yposition Zposition Zrotation Xrotation Yrotation 
					JOINT Toes_R
					{
						OFFSET -11.7543 0.0 0.0
						CHANNELS 6 Xposition Yposition Zposition Zrotation Xrotation Yrotation 
						End Site
						{
							OFFSET 0.0 0.0 0.0
						}
					}
				}
			}
		}
	}
}
MOTION
Frames:	4
Frame Time:	0.0333333
0.000000 0.000000 0.000000 0.000000 0.000000 -0.000000 -5.651660 86.237900 506.017000 -88.967200 13.221100 -178.681000 15.735700 0.000005 -0.000001 116.420000 80.713100 -118.903000 8.984550 -0.406207 -0.000000 9.120740 8.191860 -5.623540 16.377300 -0.000001 -0.000001 6.707570 1.933790 0.196511 6.456720 -0.000001 -0.000000 1.219860 -3.087610 7.480940 12.994200 -0.242716 4.980390 -87.460400 -4.994680 -63.003500 5.348090 -0.000007 -0.000001 -64.383400 21.165700 8.918430 24.328600 0.000019 0.000005 3.497890 7.000360 -26.636300 22.291600 -0.000001 0.000005 1.610510 5.539830 -8.236460 12.994500 -0.242716 -4.980390 89.207400 2.576900 -72.897900 -5.348130 -0.000001 -0.000004 -43.189400 31.431400 -41.601300 -24.328900 0.000322 -0.000009 -1.913080 -2.134100 -41.871100 -22.291500 -0.000108 -0.000004 2.581230 5.607550 -11.804700 -2.192480 -6.469440 -0.000000 -177.295000 -11.933200 -29.652400 39.081100 -0.000007 -0.000012 -0.375726 0.316622 49.880200 40.985400 -0.000006 -0.000013 -2.739400 -7.124240 -68.805000 11.754300 -0.000000 0.000003 -0.000036 -0.000429 -16.594300 -2.192510 6.469440 -0.000001 167.848000 7.670480 -173.234000 -39.081100 -0.002282 -0.040193 0.124185 -0.127315 43.523500 -40.985400 0.000008 0.000006 1.137340 -4.897210 -57.828000 -11.754300 -0.000006 -0.000006 -0.096633 -0.436124 -34.759200
0.000000 0.000000 0.000000 0.000000 0.000000 -0.000000 -6.171370 86.756900 502.744000 -88.193600 12.245400 -177.924000 15.735700 0.000005 -0.000001 112.716000 80.905900 -114.888000 8.984550 -0.406207 -0.000000 9.198300 6.958840 -4.906530 16.377300 -0.000001 -0.000001 6.765000 1.689300 -0.281707 6.456720 -0.000001 -0.000000 1.668260 -1.996740 7.988010 12.994200 -0.242716 4.980390 -87.531000 -4.976730 -63.570300 5.348090 -0.000007 -0.000001 -64.098800 21.990700 6.488780 24.328600 0.000019 0.000005 2.738930 4.977020 -28.880500 22.291600 -0.000001 0.000005 1.492900 5.547320 -8.579740 12.994500 -0.242716 -4.980390 89.207800 2.509990 -72.477300 -5.348130 -0.000001 -0.000004 -46.087200 32.757300 -37.313300 -24.328900 0.000322 -0.000009 -1.048560 -1.247480 -40.016400 -22.291500 -0.000108 -0.000004 1.842490 5.605160 -11.655500 -2.192480 -6.469440 -0.000000 -176.883000 -11.759300 -26.058900 39.081100 -0.000007 -0.000012 -0.384961 0.330874 49.321900 40.985400 -0.000006 -0.000013 -2.201470 -6.400050 -71.027300 11.754300 -0.000000 0.000003 -0.000054 -0.000604 -16.601000 -2.192510 6.469440 -0.000001 168.737000 8.056610 -176.586000 -39.081100 -0.002282 -0.040193 0.214988 -0.172433 50.842600 -40.985400 0.000008 0.000006 4.488750 -8.287620 -49.423300 -11.754300 -0.000006 -0.000006 -0.035628 -0.242189 -26.510000
0.000000 0.000000 0.000000 0.000000 0.000000 -0.000000 -6.589330 87.351100 499.803000 -87.697200 11.205800 -177.630000 15.735700 0.000005 -0.000001 108.979000 81.167200 -110.926000 8.984550 -0.406207 -0.000000 9.072710 5.693010 -4.344560 16.377300 -0.000001 -0.000001 6.597040 1.700080 -0.383157 6.456720 -0.000001 -0.000000 2.107890 -1.137870 8.056020 12.994200 -0.242716 4.980390 -87.624600 -4.925710 -64.213700 5.348090 -0.000007 -0.000001 -63.083500 24.310600 3.291930 24.328600 0.000019 0.000005 1.328680 2.155270 -31.676800 22.291600 -0.000001 0.000005 1.443830 5.559710 -9.172990 12.994500 -0.242716 -4.980390 89.112800 2.733380 -72.010100 -5.348130 -0.000001 -0.000004 -48.641100 33.634400 -32.594600 -24.328900 0.000322 -0.000009 -0.409457 -0.506150 -38.892900 -22.291500 -0.000108 -0.000004 1.392000 5.606820 -11.760400 -2.192480 -6.469440 -0.000000 -176.711000 -10.782600 -22.798100 39.081100 -0.000007 -0.000012 -0.411318 0.372155 47.862600 40.985400 -0.000006 -0.000013 -2.053190 -6.532510 -72.564500 11.754300 -0.000000 0.000003 -0.000073 -0.000784 -16.607800 -2.192510 6.469440 -0.000001 169.728000 8.893770 179.522000 -39.081100 -0.002282 -0.040193 0.253177 -0.161017 57.211900 -40.985400 0.000008 0.000006 5.975100 -10.349400 -47.757300 -11.754300 -0.000006 -0.000006 -0.023101 -0.183896 -24.092700
0.000000 0.000000 0.000000 0.000000 0.000000 -0.000000 -6.877740 88.020100 497.038000 -86.992100 9.907410 -177.132000 15.735700 0.000005 -0.000001 104.739000 81.308700 -106.326000 8.984550 -0.406207 -0.000000 9.127390 4.379980 -3.522650 16.377300 -0.000001 -0.000001 6.726160 1.636670 -0.540819 6.456720 -0.000001 -0.000000 2.335290 -0.328607 8.079900 12.994200 -0.242716 4.980390 -87.856400 -4.559310 -64.785200 5.348090 -0.000007 -0.000001 -60.862100 27.126500 -0.688406 24.328600 0.000019 0.000005 0.813328 1.165680 -34.919600 22.291600 -0.000001 0.000005 1.918110 5.568500 -9.611470 12.994500 -0.242716 -4.980390 88.927400 3.196280 -71.438900 -5.348130 -0.000001 -0.000004 -50.889000 34.070300 -27.426500 -24.328900 0.000322 -0.000009 -0.358624 -0.450776 -38.419200 -22.291500 -0.000108 -0.000004 1.605550 5.602930 -11.518000 -2.192480 -6.469440 -0.000000 -176.236000 -9.386920 -19.144300 39.081100 -0.000007 -0.000012 -0.410621 0.399794 45.766400 40.985400 -0.000006 -0.000013 -1.937130 -6.616060 -73.622900 11.754300 -0.000000 0.000003 -0.000090 -0.000937 -16.613600 -2.192510 6.469440 -0.000001 171.108000 10.359000 175.904000 -39.081100 -0.002282 -0.040193 0.274875 -0.144728 61.956000 -40.985400 0.000008 0.000006 5.724760 -9.650270 -49.475700 -11.754300 -0.000006 -0.000006 -0.022214 -0.179256 -23.901200
